<?xml version="1.0" encoding="UTF-8"?>
<!DOCTYPE svg PUBLIC "-//W3C//DTD SVG 1.1//EN" "http://www.w3.org/Graphics/SVG/1.1/DTD/svg11.dtd">
<!-- Creator: CorelDRAW SE -->
<svg xmlns="http://www.w3.org/2000/svg" xml:space="preserve" width="1080px" height="268px" version="1.1" style="shape-rendering:geometricPrecision; text-rendering:geometricPrecision; image-rendering:optimizeQuality; fill-rule:evenodd; clip-rule:evenodd"
viewBox="0 0 1080 268"
 xmlns:xlink="http://www.w3.org/1999/xlink">
 <defs>
  <style type="text/css">
   <![CDATA[
    .fil0 {fill:#ffffff;fill-rule:nonzero}
    .fil1 {fill:#5FAF39;fill-rule:nonzero}
   ]]>
  </style>
 </defs>
 <g id="Vrstva_x0020_1">
  <metadata id="CorelCorpID_0Corel-Layer"/>
  <path class="fil0" d="M23.03 214.72c-2.28,-0.43 -4.03,-0.64 -5.24,-0.64 -4.87,0 -8.54,2.27 -11.02,6.81l0 -6.1 -6.77 0 0 38.22 6.77 0 0 -21.91c0,-3.12 0.9,-5.78 2.69,-7.99 1.8,-2.22 3.9,-3.32 6.3,-3.32 1.5,0 2.98,0.51 4.45,1.53l2.82 -6.6zm24.4 33.62c3.05,3.59 7.29,5.39 12.73,5.39 5.33,0 9.53,-1.78 12.62,-5.34 3.09,-3.56 4.64,-8.41 4.64,-14.58 0,-6.18 -1.51,-11.02 -4.53,-14.5 -3.02,-3.49 -7.26,-5.23 -12.73,-5.23 -5.18,0 -9.36,1.81 -12.53,5.44 -3.17,3.63 -4.76,8.39 -4.76,14.29 0,6.09 1.52,10.93 4.56,14.53zm5.33 -24.95c1.85,-2.52 4.31,-3.78 7.4,-3.78 6.75,0 10.13,4.73 10.13,14.2 0,4.45 -0.9,7.96 -2.69,10.53 -1.8,2.57 -4.28,3.85 -7.44,3.85 -6.77,0 -10.16,-4.79 -10.16,-14.38 0,-4.42 0.92,-7.9 2.76,-10.42zm80.29 29.59l0 -53.86 -6.77 0 0 17.74c-2.04,-1.86 -5.04,-2.78 -8.98,-2.78 -4.73,0 -8.81,2.03 -12.23,6.08 -3.43,4.06 -5.14,8.95 -5.14,14.69 0,5.71 1.49,10.28 4.46,13.7 2.97,3.43 6.85,5.14 11.62,5.14 4.5,0 7.92,-1.18 10.27,-3.53l0 2.82 6.77 0zm-6.77 -8.14c-0.38,0.76 -1.32,1.48 -2.82,2.16 -1.49,0.68 -2.78,1.01 -3.85,1.01 -8.36,0 -12.55,-4.6 -12.55,-13.81 0,-4.18 1.13,-7.63 3.37,-10.35 2.25,-2.71 5.19,-4.06 8.83,-4.06 2.97,0 5.31,1.28 7.02,3.85l0 21.2zm38.02 -43.29c-0.8,0.81 -1.21,1.8 -1.21,2.96 0,1.17 0.41,2.16 1.23,2.98 0.82,0.82 1.8,1.23 2.94,1.23 1.17,0 2.16,-0.41 2.98,-1.23 0.82,-0.82 1.23,-1.81 1.23,-2.98 0,-1.14 -0.41,-2.12 -1.23,-2.94 -0.82,-0.82 -1.81,-1.23 -2.98,-1.23 -1.16,0 -2.15,0.4 -2.96,1.21zm6.03 51.46l0 -38.22 -12.02 0 0 5.71 5.25 0 0 32.51 6.77 0zm58.56 0l0 -23.66c0,-10.18 -4.19,-15.27 -12.55,-15.27 -5.06,0 -8.71,1.88 -10.95,5.63l-2.13 -4.92 -4.64 0 0 38.22 6.77 0 0 -28.41c0.91,-1.35 2.2,-2.49 3.89,-3.42 1.69,-0.93 3.3,-1.39 4.85,-1.39 2.87,0 4.92,0.81 6.15,2.44 1.22,1.63 1.84,4.48 1.84,8.55l0 22.23 6.77 0zm57.42 0l0 -23.66c0,-10.18 -4.19,-15.27 -12.55,-15.27 -5.07,0 -8.71,1.88 -10.95,5.63l-2.14 -4.92 -4.63 0 0 38.22 6.77 0 0 -28.41c0.91,-1.35 2.2,-2.49 3.89,-3.42 1.69,-0.93 3.3,-1.39 4.85,-1.39 2.87,0 4.92,0.81 6.15,2.44 1.22,1.63 1.83,4.48 1.83,8.55l0 22.23 6.78 0zm59.84 -22.59c0,-4.88 -1.5,-8.79 -4.49,-11.74 -3.09,-3.07 -7.36,-4.6 -12.8,-4.6 -4.68,0 -8.74,1.7 -12.16,5.1 -3.82,3.81 -5.74,8.86 -5.74,15.17 0,6.06 1.87,10.89 5.6,14.49 3.35,3.26 7.43,4.89 12.23,4.89 3.32,0 6.34,-0.51 9.05,-1.5 2.17,-0.76 3.77,-1.67 4.82,-2.72l-2.86 -4.88c-2.59,2.26 -5.82,3.38 -9.69,3.38 -3.4,0 -6.18,-1.04 -8.35,-3.14 -2.44,-2.4 -3.67,-5.84 -3.67,-10.31l27.53 0c0.35,-1.26 0.53,-2.64 0.53,-4.14zm-9.31 -7.64c1.72,1.84 2.57,4.12 2.57,6.86l-21.14 0c0.26,-2.76 1.37,-5.07 3.32,-6.93 2.04,-1.95 4.57,-2.92 7.59,-2.92 3.23,0 5.79,1 7.66,2.99zm-5.84 -27.51l-6.03 11.88 4.99 0 8.06 -11.88 -7.02 0zm110.31 57.71l0 -53.86 -6.78 0 0 17.74c-2.04,-1.86 -5.04,-2.78 -8.98,-2.78 -4.73,0 -8.81,2.03 -12.23,6.08 -3.42,4.06 -5.13,8.95 -5.13,14.69 0,5.71 1.48,10.28 4.45,13.7 2.97,3.43 6.85,5.14 11.62,5.14 4.5,0 7.92,-1.18 10.27,-3.53l0 2.82 6.78 0zm-6.78 -8.14c-0.38,0.76 -1.32,1.48 -2.81,2.16 -1.5,0.68 -2.78,1.01 -3.85,1.01 -8.37,0 -12.55,-4.6 -12.55,-13.81 0,-4.18 1.12,-7.63 3.37,-10.35 2.24,-2.71 5.18,-4.06 8.82,-4.06 2.97,0 5.31,1.28 7.02,3.85l0 21.2zm36.07 3.5c3.04,3.59 7.28,5.39 12.72,5.39 5.33,0 9.54,-1.78 12.63,-5.34 3.08,-3.56 4.63,-8.41 4.63,-14.58 0,-6.18 -1.51,-11.02 -4.53,-14.5 -3.02,-3.49 -7.26,-5.23 -12.73,-5.23 -5.18,0 -9.35,1.81 -12.53,5.44 -3.17,3.63 -4.76,8.39 -4.76,14.29 0,6.09 1.52,10.93 4.57,14.53zm5.33 -24.95c1.84,-2.52 4.3,-3.78 7.39,-3.78 6.75,0 10.13,4.73 10.13,14.2 0,4.45 -0.9,7.96 -2.69,10.53 -1.8,2.57 -4.28,3.85 -7.44,3.85 -6.77,0 -10.16,-4.79 -10.16,-14.38 0,-4.42 0.92,-7.9 2.77,-10.42zm100.29 29.62l0 -25.55c0,-4.24 -1.09,-7.52 -3.25,-9.87 -2.16,-2.34 -5.22,-3.51 -9.16,-3.51 -2.19,0 -4.31,0.48 -6.38,1.46 -2.07,0.97 -3.48,2.19 -4.25,3.64 -2.18,-3.4 -6.01,-5.1 -11.48,-5.1 -3.92,0 -7.19,1.71 -9.8,5.13l-2.25 -4.42 -4.42 0 0 38.22 6.78 0 0 -28.19c0.64,-1.26 1.73,-2.42 3.26,-3.46 1.53,-1.05 2.98,-1.57 4.33,-1.57 2.33,0 4.2,0.54 5.62,1.62 1.41,1.08 2.12,2.56 2.12,4.44l0 27.16 6.77 0 0 -28.26c0.52,-1.29 1.5,-2.43 2.93,-3.45 1.42,-1.01 2.96,-1.51 4.59,-1.51 5.21,0 7.81,3.01 7.81,9.03l0 24.19 6.78 0zm57.91 -38.22l-6.91 0 -10.09 29.55 -11.23 -29.55 -6.92 0 10.34 26.59c1.16,2.99 2.11,5.51 2.85,7.55 0.74,2.03 1.11,4.09 1.11,6.19 0,1.9 -1.01,3.51 -3.03,4.83 -2.02,1.33 -4.45,1.99 -7.28,1.99l0 6.06c3.47,0 6.62,-0.81 9.43,-2.43 2.82,-1.61 4.67,-3.63 5.55,-6.06l16.18 -44.72zm92.56 38.22l0 -23.66c0,-10.18 -4.18,-15.27 -12.55,-15.27 -5.06,0 -8.71,1.88 -10.95,5.63l-2.13 -4.92 -4.64 0 0 38.22 6.77 0 0 -28.41c0.91,-1.35 2.2,-2.49 3.89,-3.42 1.69,-0.93 3.3,-1.39 4.85,-1.39 2.87,0 4.92,0.81 6.15,2.44 1.22,1.63 1.83,4.48 1.83,8.55l0 22.23 6.78 0zm51.66 -0.5c1.36,0.79 3.43,1.18 6.19,1.18l0 -3.39c-2,-1.12 -3,-3.35 -3,-6.71l0 -13.7c0,-5.5 -1.25,-9.51 -3.76,-12.03 -2.51,-2.52 -6.53,-3.78 -12.07,-3.78 -2.07,0 -4.24,0.37 -6.51,1.12 -2.26,0.75 -4.04,1.65 -5.33,2.69l2.86 5.68c2.28,-2.28 5.53,-3.43 9.77,-3.43 5.51,0 8.27,3.1 8.27,9.28 -1.81,-0.62 -3.43,-0.93 -4.85,-0.93 -5.26,0 -9.57,1.34 -12.96,4.02 -3.39,2.68 -5.08,5.95 -5.08,9.83 0,3.24 1.1,5.94 3.3,8.12 2.19,2.18 4.79,3.27 7.78,3.27 5.59,0 9.74,-1.7 12.45,-5.11 0.59,1.81 1.57,3.11 2.94,3.89zm-3.58 -9.03c-2.64,3.26 -5.67,4.89 -9.09,4.89 -4.69,0 -7.03,-1.98 -7.03,-5.96 0,-2.4 1.08,-4.48 3.25,-6.24 2.16,-1.76 4.95,-2.64 8.37,-2.64 0.86,0 2.36,0.23 4.5,0.71l0 9.24zm106.49 9.53l-14.94 -23.69 12.23 -14.53 -7.91 0 -14.62 17.77 0 -33.44 -6.77 0 0 53.89 6.77 0 0 -13.03 5.92 -6.1 11.98 19.13 7.34 0zm36.03 0.72l0 -6.07c-1.9,0 -3.44,-0.59 -4.62,-1.77 -1.18,-1.18 -1.76,-2.79 -1.76,-4.83l0 -41.94 -6.78 0 0 43.08c0,7.68 4.39,11.53 13.16,11.53zm35.53 -0.72l0 -38.22 -12.13 0 0 5.71 5.25 0 0 32.51 6.88 0zm-2.75 -57.74l-6.02 11.88 4.99 0 8.05 -11.88 -7.02 0zm54.64 20.05c-2.31,-0.83 -4.45,-1.24 -6.42,-1.24 -6.13,0 -10.96,1.84 -14.49,5.53 -3.53,3.69 -5.3,8.58 -5.3,14.67 0,5.97 1.7,10.7 5.1,14.2 3.4,3.5 7.7,5.25 12.91,5.25 5.37,0 9.87,-1.18 13.51,-3.54l-2.67 -5.71c-3.1,2.36 -6.16,3.53 -9.2,3.53 -3.92,0 -6.99,-1.17 -9.2,-3.51 -2.21,-2.34 -3.32,-5.75 -3.32,-10.22 0,-4.5 1.08,-8.04 3.25,-10.62 2.16,-2.58 5.08,-3.87 8.77,-3.87 1.69,0 3.4,0.31 5.15,0.92 1.75,0.62 2.97,1.28 3.66,1.97l3.35 -4.79c-1.1,-0.88 -2.8,-1.73 -5.1,-2.57zm-2.78 -20.09l-5.82 6.71 -6.34 -6.85 -6.13 0 10.62 12.06 3.82 0 10.87 -11.92 -7.02 0zm-429.62 -112.65c0,-21.59 -6.22,-38.88 -18.68,-51.86 -12.45,-12.99 -29.35,-19.49 -50.71,-19.49 -5.49,0 -18.05,0.35 -37.67,1.05l0 153.03 30.79 0c50.85,0 76.27,-27.58 76.27,-82.73zm-70.64 -52.54c32.48,0 48.73,18.1 48.73,54.31 0,19.5 -4.17,34.73 -12.52,45.7 -8.35,10.97 -19.83,16.45 -34.44,16.45 -6.88,0 -12.66,-0.34 -17.32,-1.04l0 -114.38c8.42,-0.69 13.6,-1.04 15.55,-1.04zm112.22 115.31c10.88,15.05 25.96,22.57 45.23,22.57 21.15,0 37.39,-7.12 48.73,-21.37 11.34,-14.24 17.01,-33.92 17.01,-59.06 0,-24.51 -5.65,-43.63 -16.96,-57.35 -11.3,-13.72 -27.56,-20.58 -48.78,-20.58 -18.85,0 -33.83,7.46 -44.92,22.36 -11.1,14.9 -16.64,33.42 -16.64,55.57 0,23.53 5.44,42.82 16.33,57.86zm15.7 -101.11c6.75,-10.58 16.59,-15.88 29.53,-15.88 29.22,0 43.83,19.71 43.83,59.13 0,19.5 -3.74,34.64 -11.22,45.43 -7.48,10.8 -18.35,16.19 -32.61,16.19 -12.59,0 -22.35,-5.88 -29.27,-17.65 -6.92,-11.77 -10.38,-26.42 -10.38,-43.97 0,-18.25 3.37,-32.66 10.12,-43.25zm262.74 121.07l-30.99 -153.03 -9.39 0 -33.6 111.66 -36.42 -111.66 -9.49 0 -28.6 153.03 19.83 0 17.74 -98.3 34.33 100.38 5.22 0 33.39 -100.38 18.16 98.3 19.82 0zm130.11 -153.03l-21.49 0 -38.09 66.85 -38.08 -66.85 -21.5 0 49.25 84.5 0 68.53 20.87 0 0 -68.53 49.04 -84.5z"/>
  <path class="fil1" d="M1054.76 267.82l25.24 0 0 -267.82 -25.24 0 0 267.82zm-963.25 -236.74l0 -18.8 -91.3 0 0 153.03 90.15 0 0 -18.81 -69.28 0 0 -55.15 50.5 0 0 -17.76 -50.5 0 0 -42.51 70.43 0zm118.74 134.23l0 -69.26c0,-29.8 -12.24,-44.71 -36.73,-44.71 -14.82,0 -25.5,5.51 -32.03,16.51l-6.26 -14.42 -13.57 0 0 111.88 19.83 0 0 -83.15c2.64,-3.97 6.43,-7.31 11.37,-10.03 4.94,-2.71 9.67,-4.07 14.19,-4.07 8.42,0 14.42,2.38 18,7.15 3.58,4.77 5.37,13.11 5.37,25.02l0 65.08 19.83 0zm132.41 -66.13c0,-14.27 -4.38,-25.72 -13.15,-34.36 -9.04,-8.98 -21.53,-13.48 -37.46,-13.48 -13.7,0 -25.56,4.99 -35.58,14.94 -11.2,11.14 -16.8,25.94 -16.8,44.4 0,17.75 5.46,31.89 16.38,42.41 9.81,9.53 21.74,14.31 35.79,14.31 9.74,0 18.58,-1.47 26.51,-4.39 6.33,-2.23 11.02,-4.88 14.08,-7.94l-8.34 -14.31c-7.59,6.61 -17.05,9.92 -28.39,9.92 -9.95,0 -18.08,-3.06 -24.41,-9.19 -7.17,-7.03 -10.75,-17.1 -10.75,-30.19l80.56 0c1.04,-3.69 1.56,-7.73 1.56,-12.12zm-27.23 -22.35c5,5.37 7.51,12.05 7.51,20.06l-61.88 0c0.76,-8.08 4,-14.84 9.71,-20.27 5.98,-5.71 13.38,-8.56 22.22,-8.56 9.46,0 16.94,2.92 22.44,8.77zm125.62 -23.6c-6.68,-1.26 -11.79,-1.89 -15.34,-1.89 -14.26,0 -25.01,6.66 -32.24,19.96l0 -17.87 -19.83 0 0 111.88 19.83 0 0 -64.14c0,-9.12 2.63,-16.92 7.88,-23.4 5.25,-6.47 11.39,-9.71 18.41,-9.71 4.39,0 8.73,1.5 13.05,4.49l8.24 -19.32z"/>
 </g>
</svg>
